<?xml version="1.0" standalone="no"?>
<!DOCTYPE svg PUBLIC "-//W3C//DTD SVG 20010904//EN"
 "http://www.w3.org/TR/2001/REC-SVG-20010904/DTD/svg10.dtd">
<svg version="1.0" xmlns="http://www.w3.org/2000/svg"
 width="210.000000pt" height="210.000000pt" viewBox="0 0 210.000000 210.000000"
 preserveAspectRatio="xMidYMid meet">
<metadata>
Created by potrace 1.14, written by Peter Selinger 2001-2017
</metadata>
<g transform="translate(0.000000,210.000000) scale(0.100000,-0.100000)"
fill="#000000" stroke="none">
<path d="M427 2000 c-95 -24 -182 -80 -229 -148 -18 -26 -33 -49 -34 -52 0 -3
-6 -18 -13 -35 -42 -97 -44 -134 -45 -719 -1 -557 1 -593 50 -709 28 -67 34
-76 87 -128 62 -61 189 -111 302 -120 23 -2 96 7 135 16 96 23 192 83 242 151
42 59 83 160 93 229 3 28 7 117 8 199 3 197 10 189 -154 188 -194 0 -187 1
-195 -24 -4 -13 -8 -95 -9 -183 -3 -199 0 -181 -31 -210 -42 -39 -119 -29
-146 17 -10 18 -13 142 -14 573 0 323 3 561 9 578 16 46 84 67 140 42 34 -15
42 -46 43 -193 1 -90 5 -147 12 -154 11 -11 273 -19 314 -10 26 6 34 48 31
165 -5 230 -66 383 -186 466 -105 72 -268 96 -410 61z"/>
<path d="M1120 1990 c-5 -3 -13 -17 -17 -30 -7 -19 -10 -1719 -4 -1812 2 -29
51 -34 301 -32 246 2 312 9 398 47 28 12 85 51 113 77 59 56 114 185 124 290
8 78 8 988 0 1045 -11 90 -18 113 -50 182 -48 102 -143 187 -232 208 -10 3
-38 10 -63 16 -45 11 -553 19 -570 9z m524 -362 c21 -19 21 -28 23 -556 1
-334 -3 -547 -9 -564 -12 -31 -44 -46 -116 -52 -42 -4 -54 -1 -61 12 -14 28
-8 1161 6 1170 6 4 40 8 74 8 49 1 67 -3 83 -18z"/>
</g>
</svg>
